<svg xmlns="http://www.w3.org/2000/svg" width="3600" height="2400" viewBox="0 0 3600 2400">
<defs><pattern id="earth0" width="15" height="15" patternTransform="rotate(45)" patternUnits="userSpaceOnUse"><line x1="0" y1="0" x2="0" y2="15" stroke="#6d5b4a" stroke-width="0.9"/></pattern><pattern id="earth1" width="15" height="15" patternTransform="rotate(45)" patternUnits="userSpaceOnUse"><line x1="0" y1="0" x2="0" y2="15" stroke="#6d5b4a" stroke-width="0.9"/></pattern><pattern id="snowret" width="14" height="14" patternTransform="rotate(90)" patternUnits="userSpaceOnUse"><line x1="0" y1="0" x2="0" y2="14" stroke="#3a6ea5" stroke-width="0.7"/></pattern></defs>
<rect x="0" y="0" width="3600" height="2400" fill="#ffffff"/>
<rect x="40" y="40" width="3520" height="2320" rx="0" fill="none" stroke="#111418" stroke-width="2.2"/>
<rect x="52" y="52" width="3496" height="2296" rx="0" fill="none" stroke="#c6cfd8" stroke-width="0.6"/>
<text x="300" y="150" font-family="ui-monospace, "SF Mono", Menlo, Consolas, monospace" font-size="46" font-weight="700" fill="#111418" text-anchor="start" letter-spacing="2.5">EAST + WEST ELEVATIONS + ROOF PLAN</text>
<text x="300" y="184" font-family="ui-monospace, "SF Mono", Menlo, Consolas, monospace" font-size="18" font-weight="400" fill="#4a5560" text-anchor="start" letter-spacing="1.4">THE ENDS OF THE BAR · AND EVERY PLANE THAT SHEDS WATER</text>
<line x1="300" y1="206" x2="2880" y2="206" stroke="#111418" stroke-width="2.2"/>
<polyline points="300,998.833 312.5,995.083 325,991.333 337.5,987.583 350,983.833 362.5,980.083 375,976.333 387.5,972.583 400,968.833 412.5,965.083 425,961.333 437.5,957.583 450,953.833 462.5,950.083 475,946.333 487.5,942.583 500,938.833 512.5,935.083 525,931.333 537.5,927.583 550,923.833 562.5,920.083 575,916.333 587.5,912.583 600,908.833 612.5,905.083 625,901.333 637.5,897.583 650,893.833 662.5,890.083 675,886.333 687.5,882.583 700,878.833 712.5,875.083 725,871.333 737.5,867.583 750,863.833 762.5,860.083 775,856.333 787.5,852.583 800,848.833 812.5,845.083 825,841.333 837.5,837.583 850,833.833 862.5,830.083 875,826.333 887.5,822.583 900,818.833 912.5,815.083 925,811.333 937.5,807.583 950,803.833 962.5,800.083 975,796.333 987.5,792.583 1000,788.833 1012.5,785.083 1025,781.333 1037.5,777.583 1050,773.833 1062.5,770.083 1075,766.333 1087.5,762.583 1100,758.833 1112.5,755.083 1125,751.333 1137.5,747.583 1150,743.833 1162.5,740.083 1175,736.333 1187.5,732.583 1200,728.833 1212.5,725.083 1225,721.333 1237.5,717.583 1250,713.833 1262.5,710.083 1275,706.333 1287.5,702.583 1300,698.833 1312.5,695.083 1325,691.333" fill="none" stroke="#6d5b4a" stroke-width="1.4" stroke-dasharray="22 10" stroke-linejoin="miter"/>
<polyline points="300,1192.5 312.5,1192.5 325,1192.5 337.5,1192.5 350,1192.5 362.5,1192.5 375,1192.5 387.5,1192.5 400,1192.5 412.5,1192.5 425,1192.5 437.5,1192.5 450,1192.5 462.5,1187.417 475,1183.667 487.5,1179.917 500,1176.167 512.5,1172.417 525,1168.667 537.5,1164.917 550,1161.167 562.5,1157.417 575,1153.667 587.5,1149.917 600,1146.167 612.5,1142.417 625,1138.667 637.5,1134.917 650,1131.167 662.5,1127.417 675,1123.667 687.5,1119.917 700,1116.167 712.5,1112.417 725,1108.667 737.5,1104.917 750,1101.167 762.5,1097.417 775,1093.667 787.5,1089.917 800,1086.167 812.5,1082.417 825,1078.667 837.5,1074.917 850,1071.167 862.5,1067.417 875,1063.667 887.5,1059.917 900,1056.167 912.5,1052.417 925,1048.667 937.5,1044.917 950,1041.167 962.5,1037.417 975,1033.667 987.5,1029.917 1000,1026.167 1012.5,1025.833 1025,1025.833 1037.5,1025.833 1050,1025.833 1062.5,1025.833 1075,1025.833 1087.5,1025.833 1100,992.5 1112.5,992.5 1125,992.5 1137.5,992.5 1150,992.5 1162.5,992.5 1175,992.5 1187.5,992.5 1200,946.667 1212.5,946.667 1225,946.667 1237.5,946.667 1250,946.667 1262.5,946.667 1275,946.667 1287.5,946.667 1300,946.667 1312.5,946.667 1325,946.667" fill="none" stroke="#6d5b4a" stroke-width="0.6" stroke-dasharray="12 8" stroke-linejoin="miter"/>
<polygon points="450,1280 1100,1280 1100,302.917 450,465.417" fill="#ffffff" stroke="#4a5560" stroke-width="1.4" stroke-dasharray="18 10" stroke-linejoin="miter"/>
<text x="775" y="259.167" font-family="ui-monospace, "SF Mono", Menlo, Consolas, monospace" font-size="13" font-weight="400" fill="#4a5560" text-anchor="middle" letter-spacing="1.2">HOUSE BEYOND</text>
<polygon points="350,448.75 1150,248.75 1150,290.417 350,490.417" fill="#1b2026" stroke="#111418" stroke-width="4.2" stroke-linejoin="miter"/>
<polygon points="575,1046.667 1175,1046.667 1175,517.5 575,717.5" fill="#ffffff" stroke="#111418" stroke-width="4.2" stroke-linejoin="miter"/>
<polygon points="512.5,696.667 1225,459.167 1225,500.833 512.5,738.333" fill="#1b2026" stroke="#111418" stroke-width="4.2" stroke-linejoin="miter"/>
<polygon points="650,946.667 875,946.667 875,746.667 650,746.667" fill="#dfe4e8" stroke="#111418" stroke-width="2.2" stroke-linejoin="miter"/>
<line x1="650" y1="902.917" x2="875" y2="902.917" stroke="#4a5560" stroke-width="0.6" stroke-linecap="butt"/>
<line x1="650" y1="859.167" x2="875" y2="859.167" stroke="#4a5560" stroke-width="0.6" stroke-linecap="butt"/>
<line x1="650" y1="815.417" x2="875" y2="815.417" stroke="#4a5560" stroke-width="0.6" stroke-linecap="butt"/>
<line x1="650" y1="771.667" x2="875" y2="771.667" stroke="#4a5560" stroke-width="0.6" stroke-linecap="butt"/>
<polygon points="900,946.667 1125,946.667 1125,746.667 900,746.667" fill="#dfe4e8" stroke="#111418" stroke-width="2.2" stroke-linejoin="miter"/>
<line x1="900" y1="902.917" x2="1125" y2="902.917" stroke="#4a5560" stroke-width="0.6" stroke-linecap="butt"/>
<line x1="900" y1="859.167" x2="1125" y2="859.167" stroke="#4a5560" stroke-width="0.6" stroke-linecap="butt"/>
<line x1="900" y1="815.417" x2="1125" y2="815.417" stroke="#4a5560" stroke-width="0.6" stroke-linecap="butt"/>
<line x1="900" y1="771.667" x2="1125" y2="771.667" stroke="#4a5560" stroke-width="0.6" stroke-linecap="butt"/>
<polygon points="300,998.833 312.5,995.083 325,991.333 337.5,987.583 350,983.833 362.5,980.083 375,976.333 387.5,972.583 400,968.833 412.5,965.083 425,961.333 437.5,957.583 450,953.833 462.5,950.083 475,946.333 487.5,942.583 500,938.833 512.5,935.083 525,946.667 537.5,946.667 550,946.667 562.5,946.667 575,946.667 587.5,946.667 600,946.667 612.5,946.667 625,946.667 637.5,946.667 650,946.667 662.5,946.667 675,946.667 687.5,946.667 700,946.667 712.5,946.667 725,946.667 737.5,946.667 750,946.667 762.5,946.667 775,946.667 787.5,946.667 800,946.667 812.5,946.667 825,946.667 837.5,946.667 850,946.667 862.5,946.667 875,946.667 887.5,946.667 900,946.667 912.5,946.667 925,946.667 937.5,946.667 950,946.667 962.5,946.667 975,946.667 987.5,946.667 1000,946.667 1012.5,946.667 1025,946.667 1037.5,946.667 1050,946.667 1062.5,946.667 1075,946.667 1087.5,946.667 1100,946.667 1112.5,946.667 1125,946.667 1137.5,946.667 1150,946.667 1162.5,946.667 1175,946.667 1187.5,946.667 1200,946.667 1212.5,946.667 1225,946.667 1237.5,946.667 1250,946.667 1262.5,946.667 1275,946.667 1287.5,946.667 1300,946.667 1312.5,946.667 1325,946.667 1325,1430 300,1430" fill="url(#earth0)" stroke="none" stroke-width="0" stroke-linejoin="miter"/>
<polyline points="300,998.833 312.5,995.083 325,991.333 337.5,987.583 350,983.833 362.5,980.083 375,976.333 387.5,972.583 400,968.833 412.5,965.083 425,961.333 437.5,957.583 450,953.833 462.5,950.083 475,946.333 487.5,942.583 500,938.833 512.5,935.083 525,946.667 537.5,946.667 550,946.667 562.5,946.667 575,946.667 587.5,946.667 600,946.667 612.5,946.667 625,946.667 637.5,946.667 650,946.667 662.5,946.667 675,946.667 687.5,946.667 700,946.667 712.5,946.667 725,946.667 737.5,946.667 750,946.667 762.5,946.667 775,946.667 787.5,946.667 800,946.667 812.5,946.667 825,946.667 837.5,946.667 850,946.667 862.5,946.667 875,946.667 887.5,946.667 900,946.667 912.5,946.667 925,946.667 937.5,946.667 950,946.667 962.5,946.667 975,946.667 987.5,946.667 1000,946.667 1012.5,946.667 1025,946.667 1037.5,946.667 1050,946.667 1062.5,946.667 1075,946.667 1087.5,946.667 1100,946.667 1112.5,946.667 1125,946.667 1137.5,946.667 1150,946.667 1162.5,946.667 1175,946.667 1187.5,946.667 1200,946.667 1212.5,946.667 1225,946.667 1237.5,946.667 1250,946.667 1262.5,946.667 1275,946.667 1287.5,946.667 1300,946.667 1312.5,946.667 1325,946.667" fill="none" stroke="#6d5b4a" stroke-width="3.4" stroke-linejoin="miter"/>
<line x1="300" y1="1180" x2="1400" y2="1180" stroke="#c6cfd8" stroke-width="0.6" stroke-dasharray="30 8 5 8" stroke-linecap="butt"/>
<path d="M 1400 1180 l 10 -10 l 10 10 l -10 10 z" fill="#ffffff" stroke="#111418" stroke-width="1.4"/>
<text x="1428" y="1174" font-family="ui-monospace, "SF Mono", Menlo, Consolas, monospace" font-size="18" font-weight="400" fill="#111418" text-anchor="start" letter-spacing="0">LOWER  EL. 100'-0"</text>
<line x1="300" y1="930" x2="1400" y2="930" stroke="#c6cfd8" stroke-width="0.6" stroke-dasharray="30 8 5 8" stroke-linecap="butt"/>
<path d="M 1400 930 l 10 -10 l 10 10 l -10 10 z" fill="#ffffff" stroke="#111418" stroke-width="1.4"/>
<text x="1428" y="924" font-family="ui-monospace, "SF Mono", Menlo, Consolas, monospace" font-size="18" font-weight="400" fill="#111418" text-anchor="start" letter-spacing="0">MAIN  EL. 110'-0"</text>
<line x1="300" y1="680" x2="1400" y2="680" stroke="#c6cfd8" stroke-width="0.6" stroke-dasharray="30 8 5 8" stroke-linecap="butt"/>
<path d="M 1400 680 l 10 -10 l 10 10 l -10 10 z" fill="#ffffff" stroke="#111418" stroke-width="1.4"/>
<text x="1428" y="674" font-family="ui-monospace, "SF Mono", Menlo, Consolas, monospace" font-size="18" font-weight="400" fill="#111418" text-anchor="start" letter-spacing="0">UPPER  EL. 120'-0"</text>
<line x1="300" y1="261.25" x2="1400" y2="261.25" stroke="#c6cfd8" stroke-width="0.6" stroke-dasharray="30 8 5 8" stroke-linecap="butt"/>
<path d="M 1400 261.25 l 10 -10 l 10 10 l -10 10 z" fill="#ffffff" stroke="#111418" stroke-width="1.4"/>
<text x="1428" y="255.25" font-family="ui-monospace, "SF Mono", Menlo, Consolas, monospace" font-size="18" font-weight="400" fill="#111418" text-anchor="start" letter-spacing="0">T.O. ROOF  EL. 136'-9"</text>
<line x1="200" y1="1180" x2="200" y2="930" stroke="#111418" stroke-width="1" stroke-linecap="butt"/>
<line x1="192" y1="1188" x2="208" y2="1172" stroke="#111418" stroke-width="2.2"/>
<line x1="186" y1="1180" x2="206" y2="1180" stroke="#4a5560" stroke-width="0.6" stroke-linecap="butt"/>
<line x1="192" y1="938" x2="208" y2="922" stroke="#111418" stroke-width="2.2"/>
<line x1="186" y1="930" x2="206" y2="930" stroke="#4a5560" stroke-width="0.6" stroke-linecap="butt"/>
<text x="212" y="1055" font-family="ui-monospace, "SF Mono", Menlo, Consolas, monospace" font-size="19" font-weight="400" fill="#111418" text-anchor="middle" letter-spacing="0" transform="rotate(-90 212 1055)">10'-0"</text>
<line x1="200" y1="930" x2="200" y2="680" stroke="#111418" stroke-width="1" stroke-linecap="butt"/>
<line x1="192" y1="938" x2="208" y2="922" stroke="#111418" stroke-width="2.2"/>
<line x1="186" y1="930" x2="206" y2="930" stroke="#4a5560" stroke-width="0.6" stroke-linecap="butt"/>
<line x1="192" y1="688" x2="208" y2="672" stroke="#111418" stroke-width="2.2"/>
<line x1="186" y1="680" x2="206" y2="680" stroke="#4a5560" stroke-width="0.6" stroke-linecap="butt"/>
<text x="212" y="805" font-family="ui-monospace, "SF Mono", Menlo, Consolas, monospace" font-size="19" font-weight="400" fill="#111418" text-anchor="middle" letter-spacing="0" transform="rotate(-90 212 805)">10'-0"</text>
<circle cx="450" cy="1380" r="26" fill="#ffffff" stroke="#4a5560" stroke-width="2.2"/>
<text x="450" y="1388" font-family="ui-monospace, "SF Mono", Menlo, Consolas, monospace" font-size="24" font-weight="700" fill="#111418" text-anchor="middle" letter-spacing="0">1</text>
<circle cx="825" cy="1380" r="26" fill="#ffffff" stroke="#4a5560" stroke-width="2.2"/>
<text x="825" y="1388" font-family="ui-monospace, "SF Mono", Menlo, Consolas, monospace" font-size="24" font-weight="700" fill="#111418" text-anchor="middle" letter-spacing="0">2</text>
<circle cx="1100" cy="1380" r="26" fill="#ffffff" stroke="#4a5560" stroke-width="2.2"/>
<text x="1100" y="1388" font-family="ui-monospace, "SF Mono", Menlo, Consolas, monospace" font-size="24" font-weight="700" fill="#111418" text-anchor="middle" letter-spacing="0">3</text>
<text x="300" y="1480" font-family="ui-monospace, "SF Mono", Menlo, Consolas, monospace" font-size="24" font-weight="700" fill="#111418" text-anchor="start" letter-spacing="1.5">EAST ELEVATION   ·   FACING 70°</text>
<text x="300" y="1506" font-family="ui-monospace, "SF Mono", Menlo, Consolas, monospace" font-size="15" font-weight="400" fill="#4a5560" text-anchor="start" letter-spacing="0">THE ARRIVAL END · GARAGE, BREEZEWAY, THE HIGH GROUND</text>
<text x="300" y="1528" font-family="ui-monospace, "SF Mono", Menlo, Consolas, monospace" font-size="12" font-weight="400" fill="#4a5560" text-anchor="start" letter-spacing="0">DASHED LINE IS ASSUMED NATURAL GRADE. LIGHTER DASHED LINE IS FINISHED GRADE BEYOND THE BUILDING.</text>
<polyline points="1480,951.167 1492.5,954.917 1505,958.667 1517.5,962.417 1530,966.167 1542.5,969.917 1555,973.667 1567.5,977.417 1580,981.167 1592.5,984.917 1605,988.667 1617.5,992.417 1630,996.167 1642.5,999.917 1655,1003.667 1667.5,1007.417 1680,1011.167 1692.5,1014.917 1705,1018.667 1717.5,1022.417 1730,1026.167 1742.5,1029.917 1755,1033.667 1767.5,1037.417 1780,1041.167 1792.5,1044.917 1805,1048.667 1817.5,1052.417 1830,1056.167 1842.5,1059.917 1855,1063.667 1867.5,1067.417 1880,1071.167 1892.5,1074.917 1905,1078.667 1917.5,1082.417 1930,1086.167 1942.5,1089.917 1955,1093.667 1967.5,1097.417 1980,1101.167 1992.5,1104.917 2005,1108.667 2017.5,1112.417 2030,1116.167 2042.5,1119.917 2055,1123.667 2067.5,1127.417 2080,1131.167 2092.5,1134.917 2105,1138.667 2117.5,1142.417 2130,1146.167 2142.5,1149.917 2155,1153.667 2167.5,1157.417 2180,1161.167 2192.5,1164.917 2205,1168.667 2217.5,1172.417 2230,1176.167 2242.5,1179.917 2255,1183.667 2267.5,1187.417 2280,1191.167 2292.5,1194.917 2305,1198.667 2317.5,1202.417 2330,1206.167 2342.5,1209.917 2355,1213.667 2367.5,1217.417 2380,1221.167 2392.5,1224.917 2405,1228.667 2417.5,1232.417 2430,1236.167" fill="none" stroke="#6d5b4a" stroke-width="1.4" stroke-dasharray="22 10" stroke-linejoin="miter"/>
<polyline points="1480,946.667 1492.5,946.667 1505,946.667 1517.5,946.667 1530,946.667 1542.5,946.667 1555,946.667 1567.5,946.667 1580,946.667 1592.5,946.667 1605,946.667 1617.5,946.667 1630,946.667 1642.5,946.667 1655,946.667 1667.5,946.667 1680,946.667 1692.5,946.667 1705,946.667 1717.5,946.667 1730,946.667 1742.5,946.667 1755,946.667 1767.5,946.667 1780,946.667 1792.5,946.667 1805,946.667 1817.5,946.667 1830,946.667 1842.5,946.667 1855,946.667 1867.5,946.667 1880,946.667 1892.5,946.667 1905,946.667 1917.5,946.667 1930,946.667 1942.5,946.667 1955,946.667 1967.5,946.667 1980,946.667 1992.5,946.667 2005,946.667 2017.5,946.667 2030,946.667 2042.5,946.667 2055,946.667 2067.5,946.667 2080,946.667 2092.5,946.667 2105,946.667 2117.5,946.667 2130,946.667 2142.5,946.667 2155,946.667 2167.5,946.667 2180,946.667 2192.5,946.667 2205,946.667 2217.5,935.083 2230,938.833 2242.5,942.583 2255,946.333 2267.5,950.083 2280,953.833 2292.5,957.583 2305,961.333 2317.5,965.083 2330,968.833 2342.5,972.583 2355,976.333 2367.5,980.083 2380,983.833 2392.5,987.583 2405,991.333 2417.5,995.083 2430,998.833" fill="none" stroke="#6d5b4a" stroke-width="0.6" stroke-dasharray="12 8" stroke-linejoin="miter"/>
<polygon points="2280,1280 1630,1280 1630,521.667 2280,684.167" fill="#ffffff" stroke="#111418" stroke-width="4.2" stroke-linejoin="miter"/>
<polygon points="2380,667.5 1580,467.5 1580,509.167 2380,709.167" fill="#1b2026" stroke="#111418" stroke-width="4.2" stroke-linejoin="miter"/>
<polygon points="2030,880 2155,880 2155,730 2030,730" fill="#dfe9ef" stroke="#111418" stroke-width="2.2" stroke-linejoin="miter"/>
<polygon points="2055,1117.5 2155,1117.5 2155,992.5 2055,992.5" fill="#dfe9ef" stroke="#111418" stroke-width="2.2" stroke-linejoin="miter"/>
<polygon points="1480,946.667 1492.5,946.667 1505,946.667 1517.5,946.667 1530,946.667 1542.5,992.5 1555,992.5 1567.5,992.5 1580,992.5 1592.5,992.5 1605,992.5 1617.5,992.5 1630,992.5 1642.5,1025.833 1655,1025.833 1667.5,1025.833 1680,1025.833 1692.5,1025.833 1705,1025.833 1717.5,1025.833 1730,1026.167 1742.5,1029.917 1755,1033.667 1767.5,1037.417 1780,1041.167 1792.5,1044.917 1805,1048.667 1817.5,1052.417 1830,1056.167 1842.5,1059.917 1855,1063.667 1867.5,1067.417 1880,1071.167 1892.5,1074.917 1905,1078.667 1917.5,1082.417 1930,1086.167 1942.5,1089.917 1955,1093.667 1967.5,1097.417 1980,1101.167 1992.5,1104.917 2005,1108.667 2017.5,1112.417 2030,1116.167 2042.5,1119.917 2055,1123.667 2067.5,1127.417 2080,1131.167 2092.5,1134.917 2105,1138.667 2117.5,1142.417 2130,1146.167 2142.5,1149.917 2155,1153.667 2167.5,1157.417 2180,1161.167 2192.5,1164.917 2205,1168.667 2217.5,1172.417 2230,1176.167 2242.5,1179.917 2255,1183.667 2267.5,1187.417 2280,1192.5 2292.5,1192.5 2305,1192.5 2317.5,1192.5 2330,1192.5 2342.5,1192.5 2355,1192.5 2367.5,1192.5 2380,1192.5 2392.5,1192.5 2405,1192.5 2417.5,1192.5 2430,1192.5 2430,1430 1480,1430" fill="url(#earth1)" stroke="none" stroke-width="0" stroke-linejoin="miter"/>
<polyline points="1480,946.667 1492.5,946.667 1505,946.667 1517.5,946.667 1530,946.667 1542.5,992.5 1555,992.5 1567.5,992.5 1580,992.5 1592.5,992.5 1605,992.5 1617.5,992.5 1630,992.5 1642.5,1025.833 1655,1025.833 1667.5,1025.833 1680,1025.833 1692.5,1025.833 1705,1025.833 1717.5,1025.833 1730,1026.167 1742.5,1029.917 1755,1033.667 1767.5,1037.417 1780,1041.167 1792.5,1044.917 1805,1048.667 1817.5,1052.417 1830,1056.167 1842.5,1059.917 1855,1063.667 1867.5,1067.417 1880,1071.167 1892.5,1074.917 1905,1078.667 1917.5,1082.417 1930,1086.167 1942.5,1089.917 1955,1093.667 1967.5,1097.417 1980,1101.167 1992.5,1104.917 2005,1108.667 2017.5,1112.417 2030,1116.167 2042.5,1119.917 2055,1123.667 2067.5,1127.417 2080,1131.167 2092.5,1134.917 2105,1138.667 2117.5,1142.417 2130,1146.167 2142.5,1149.917 2155,1153.667 2167.5,1157.417 2180,1161.167 2192.5,1164.917 2205,1168.667 2217.5,1172.417 2230,1176.167 2242.5,1179.917 2255,1183.667 2267.5,1187.417 2280,1192.5 2292.5,1192.5 2305,1192.5 2317.5,1192.5 2330,1192.5 2342.5,1192.5 2355,1192.5 2367.5,1192.5 2380,1192.5 2392.5,1192.5 2405,1192.5 2417.5,1192.5 2430,1192.5" fill="none" stroke="#6d5b4a" stroke-width="3.4" stroke-linejoin="miter"/>
<line x1="1480" y1="1180" x2="2505" y2="1180" stroke="#c6cfd8" stroke-width="0.6" stroke-dasharray="30 8 5 8" stroke-linecap="butt"/>
<path d="M 2505 1180 l 10 -10 l 10 10 l -10 10 z" fill="#ffffff" stroke="#111418" stroke-width="1.4"/>
<text x="2533" y="1174" font-family="ui-monospace, "SF Mono", Menlo, Consolas, monospace" font-size="18" font-weight="400" fill="#111418" text-anchor="start" letter-spacing="0">LOWER  EL. 100'-0"</text>
<line x1="1480" y1="930" x2="2505" y2="930" stroke="#c6cfd8" stroke-width="0.6" stroke-dasharray="30 8 5 8" stroke-linecap="butt"/>
<path d="M 2505 930 l 10 -10 l 10 10 l -10 10 z" fill="#ffffff" stroke="#111418" stroke-width="1.4"/>
<text x="2533" y="924" font-family="ui-monospace, "SF Mono", Menlo, Consolas, monospace" font-size="18" font-weight="400" fill="#111418" text-anchor="start" letter-spacing="0">MAIN  EL. 110'-0"</text>
<line x1="1480" y1="680" x2="2505" y2="680" stroke="#c6cfd8" stroke-width="0.6" stroke-dasharray="30 8 5 8" stroke-linecap="butt"/>
<path d="M 2505 680 l 10 -10 l 10 10 l -10 10 z" fill="#ffffff" stroke="#111418" stroke-width="1.4"/>
<text x="2533" y="674" font-family="ui-monospace, "SF Mono", Menlo, Consolas, monospace" font-size="18" font-weight="400" fill="#111418" text-anchor="start" letter-spacing="0">UPPER  EL. 120'-0"</text>
<line x1="1480" y1="261.25" x2="2505" y2="261.25" stroke="#c6cfd8" stroke-width="0.6" stroke-dasharray="30 8 5 8" stroke-linecap="butt"/>
<path d="M 2505 261.25 l 10 -10 l 10 10 l -10 10 z" fill="#ffffff" stroke="#111418" stroke-width="1.4"/>
<text x="2533" y="255.25" font-family="ui-monospace, "SF Mono", Menlo, Consolas, monospace" font-size="18" font-weight="400" fill="#111418" text-anchor="start" letter-spacing="0">T.O. ROOF  EL. 136'-9"</text>
<line x1="1380" y1="1180" x2="1380" y2="930" stroke="#111418" stroke-width="1" stroke-linecap="butt"/>
<line x1="1372" y1="1188" x2="1388" y2="1172" stroke="#111418" stroke-width="2.2"/>
<line x1="1366" y1="1180" x2="1386" y2="1180" stroke="#4a5560" stroke-width="0.6" stroke-linecap="butt"/>
<line x1="1372" y1="938" x2="1388" y2="922" stroke="#111418" stroke-width="2.2"/>
<line x1="1366" y1="930" x2="1386" y2="930" stroke="#4a5560" stroke-width="0.6" stroke-linecap="butt"/>
<text x="1392" y="1055" font-family="ui-monospace, "SF Mono", Menlo, Consolas, monospace" font-size="19" font-weight="400" fill="#111418" text-anchor="middle" letter-spacing="0" transform="rotate(-90 1392 1055)">10'-0"</text>
<line x1="1380" y1="930" x2="1380" y2="680" stroke="#111418" stroke-width="1" stroke-linecap="butt"/>
<line x1="1372" y1="938" x2="1388" y2="922" stroke="#111418" stroke-width="2.2"/>
<line x1="1366" y1="930" x2="1386" y2="930" stroke="#4a5560" stroke-width="0.6" stroke-linecap="butt"/>
<line x1="1372" y1="688" x2="1388" y2="672" stroke="#111418" stroke-width="2.2"/>
<line x1="1366" y1="680" x2="1386" y2="680" stroke="#4a5560" stroke-width="0.6" stroke-linecap="butt"/>
<text x="1392" y="805" font-family="ui-monospace, "SF Mono", Menlo, Consolas, monospace" font-size="19" font-weight="400" fill="#111418" text-anchor="middle" letter-spacing="0" transform="rotate(-90 1392 805)">10'-0"</text>
<circle cx="2280" cy="1380" r="26" fill="#ffffff" stroke="#4a5560" stroke-width="2.2"/>
<text x="2280" y="1388" font-family="ui-monospace, "SF Mono", Menlo, Consolas, monospace" font-size="24" font-weight="700" fill="#111418" text-anchor="middle" letter-spacing="0">1</text>
<circle cx="1905" cy="1380" r="26" fill="#ffffff" stroke="#4a5560" stroke-width="2.2"/>
<text x="1905" y="1388" font-family="ui-monospace, "SF Mono", Menlo, Consolas, monospace" font-size="24" font-weight="700" fill="#111418" text-anchor="middle" letter-spacing="0">2</text>
<circle cx="1630" cy="1380" r="26" fill="#ffffff" stroke="#4a5560" stroke-width="2.2"/>
<text x="1630" y="1388" font-family="ui-monospace, "SF Mono", Menlo, Consolas, monospace" font-size="24" font-weight="700" fill="#111418" text-anchor="middle" letter-spacing="0">3</text>
<text x="1480" y="1480" font-family="ui-monospace, "SF Mono", Menlo, Consolas, monospace" font-size="24" font-weight="700" fill="#111418" text-anchor="start" letter-spacing="1.5">WEST ELEVATION   ·   FACING 250°</text>
<text x="1480" y="1506" font-family="ui-monospace, "SF Mono", Menlo, Consolas, monospace" font-size="15" font-weight="400" fill="#4a5560" text-anchor="start" letter-spacing="0">THE LOW END · THE PRIMARY SUITE, THE TERRACE, THE FALL OF THE LAND</text>
<text x="1480" y="1528" font-family="ui-monospace, "SF Mono", Menlo, Consolas, monospace" font-size="12" font-weight="400" fill="#4a5560" text-anchor="start" letter-spacing="0">DASHED LINE IS ASSUMED NATURAL GRADE. LIGHTER DASHED LINE IS FINISHED GRADE BEYOND THE BUILDING.</text>
<polygon points="275,2100 900,2100 900,1700 275,1700" fill="#f2efe9" stroke="#111418" stroke-width="4.2" stroke-linejoin="miter"/>
<polygon points="300,2050 900,2050 900,1725 300,1725" fill="none" stroke="#4a5560" stroke-width="0.6" stroke-dasharray="14 8" stroke-linejoin="miter"/>
<text x="600" y="1856.25" font-family="ui-monospace, "SF Mono", Menlo, Consolas, monospace" font-size="15" font-weight="700" fill="#111418" text-anchor="middle" letter-spacing="1.2">ROOF A — LOW WING</text>
<text x="600" y="1887.5" font-family="ui-monospace, "SF Mono", Menlo, Consolas, monospace" font-size="13" font-weight="400" fill="#4a5560" text-anchor="middle" letter-spacing="0">3:12 FALLING -Y</text>
<text x="600" y="1914.583" font-family="ui-monospace, "SF Mono", Menlo, Consolas, monospace" font-size="11" font-weight="400" fill="#4a5560" text-anchor="middle" letter-spacing="0">T.O. EL. 128'-0" AT SPINE</text>
<text x="600" y="1933.333" font-family="ui-monospace, "SF Mono", Menlo, Consolas, monospace" font-size="11" font-weight="400" fill="#4a5560" text-anchor="middle" letter-spacing="0">EL. 121'-6" AT EAVE</text>
<line x1="687.5" y1="1750" x2="687.5" y2="2025" stroke="#3a6ea5" stroke-width="2.2" stroke-linecap="butt"/>
<line x1="687.5" y1="2025" x2="698.24" y2="2007.148" stroke="#3a6ea5" stroke-width="2.2" stroke-linecap="butt"/>
<line x1="687.5" y1="2025" x2="676.76" y2="2007.148" stroke="#3a6ea5" stroke-width="2.2" stroke-linecap="butt"/>
<line x1="275" y1="2100" x2="900" y2="2100" stroke="#3a6ea5" stroke-width="3.4" stroke-linecap="butt"/>
<polygon points="881.25,2100 1225,2100 1225,1700 881.25,1700" fill="#f2efe9" stroke="#111418" stroke-width="4.2" stroke-linejoin="miter"/>
<polygon points="900,2050 1200,2050 1200,1725 900,1725" fill="none" stroke="#4a5560" stroke-width="0.6" stroke-dasharray="14 8" stroke-linejoin="miter"/>
<text x="1050" y="1856.25" font-family="ui-monospace, "SF Mono", Menlo, Consolas, monospace" font-size="15" font-weight="700" fill="#111418" text-anchor="middle" letter-spacing="1.2">ROOF B — TALL WING</text>
<text x="1050" y="1887.5" font-family="ui-monospace, "SF Mono", Menlo, Consolas, monospace" font-size="13" font-weight="400" fill="#4a5560" text-anchor="middle" letter-spacing="0">3:12 FALLING -Y</text>
<text x="1050" y="1914.583" font-family="ui-monospace, "SF Mono", Menlo, Consolas, monospace" font-size="11" font-weight="400" fill="#4a5560" text-anchor="middle" letter-spacing="0">T.O. EL. 136'-9" AT SPINE</text>
<text x="1050" y="1933.333" font-family="ui-monospace, "SF Mono", Menlo, Consolas, monospace" font-size="11" font-weight="400" fill="#4a5560" text-anchor="middle" letter-spacing="0">EL. 130'-3" AT EAVE</text>
<line x1="1137.5" y1="1750" x2="1137.5" y2="2025" stroke="#3a6ea5" stroke-width="2.2" stroke-linecap="butt"/>
<line x1="1137.5" y1="2025" x2="1148.24" y2="2007.148" stroke="#3a6ea5" stroke-width="2.2" stroke-linecap="butt"/>
<line x1="1137.5" y1="2025" x2="1126.76" y2="2007.148" stroke="#3a6ea5" stroke-width="2.2" stroke-linecap="butt"/>
<line x1="881.25" y1="2100" x2="1225" y2="2100" stroke="#3a6ea5" stroke-width="3.4" stroke-linecap="butt"/>
<polygon points="1200,2025 1387.5,2025 1387.5,1700 1200,1700" fill="#f2efe9" stroke="#111418" stroke-width="4.2" stroke-linejoin="miter"/>
<polygon points="1200,1987.5 1387.5,1987.5 1387.5,1725 1200,1725" fill="none" stroke="#4a5560" stroke-width="0.6" stroke-dasharray="14 8" stroke-linejoin="miter"/>
<text x="1293.75" y="1737.5" font-family="ui-monospace, "SF Mono", Menlo, Consolas, monospace" font-size="15" font-weight="700" fill="#111418" text-anchor="middle" letter-spacing="1.2">ROOF L — LINK</text>
<text x="1293.75" y="1768.75" font-family="ui-monospace, "SF Mono", Menlo, Consolas, monospace" font-size="13" font-weight="400" fill="#4a5560" text-anchor="middle" letter-spacing="0">1:12 FALLING -Y</text>
<text x="1293.75" y="1795.833" font-family="ui-monospace, "SF Mono", Menlo, Consolas, monospace" font-size="11" font-weight="400" fill="#4a5560" text-anchor="middle" letter-spacing="0">T.O. EL. 122'-3" AT SPINE</text>
<text x="1293.75" y="1814.583" font-family="ui-monospace, "SF Mono", Menlo, Consolas, monospace" font-size="11" font-weight="400" fill="#4a5560" text-anchor="middle" letter-spacing="0">EL. 120'-6" AT EAVE</text>
<line x1="1325" y1="1750" x2="1325" y2="1962.5" stroke="#3a6ea5" stroke-width="2.2" stroke-linecap="butt"/>
<line x1="1325" y1="1962.5" x2="1335.74" y2="1944.648" stroke="#3a6ea5" stroke-width="2.2" stroke-linecap="butt"/>
<line x1="1325" y1="1962.5" x2="1314.26" y2="1944.648" stroke="#3a6ea5" stroke-width="2.2" stroke-linecap="butt"/>
<line x1="1200" y1="2025" x2="1387.5" y2="2025" stroke="#3a6ea5" stroke-width="3.4" stroke-linecap="butt"/>
<polygon points="1475,2018.75 1825,2018.75 1825,1662.5 1475,1662.5" fill="#f2efe9" stroke="#111418" stroke-width="4.2" stroke-linejoin="miter"/>
<polygon points="1500,1987.5 1800,1987.5 1800,1687.5 1500,1687.5" fill="none" stroke="#4a5560" stroke-width="0.6" stroke-dasharray="14 8" stroke-linejoin="miter"/>
<text x="1650" y="1806.25" font-family="ui-monospace, "SF Mono", Menlo, Consolas, monospace" font-size="15" font-weight="700" fill="#111418" text-anchor="middle" letter-spacing="1.2">ROOF G — GARAGE</text>
<text x="1650" y="1837.5" font-family="ui-monospace, "SF Mono", Menlo, Consolas, monospace" font-size="13" font-weight="400" fill="#4a5560" text-anchor="middle" letter-spacing="0">4:12 FALLING -Y</text>
<text x="1650" y="1864.583" font-family="ui-monospace, "SF Mono", Menlo, Consolas, monospace" font-size="11" font-weight="400" fill="#4a5560" text-anchor="middle" letter-spacing="0">T.O. EL. 128'-2" AT SPINE</text>
<text x="1650" y="1883.333" font-family="ui-monospace, "SF Mono", Menlo, Consolas, monospace" font-size="11" font-weight="400" fill="#4a5560" text-anchor="middle" letter-spacing="0">EL. 120'-2" AT EAVE</text>
<line x1="1737.5" y1="1712.5" x2="1737.5" y2="1962.5" stroke="#3a6ea5" stroke-width="2.2" stroke-linecap="butt"/>
<line x1="1737.5" y1="1962.5" x2="1748.24" y2="1944.648" stroke="#3a6ea5" stroke-width="2.2" stroke-linecap="butt"/>
<line x1="1737.5" y1="1962.5" x2="1726.76" y2="1944.648" stroke="#3a6ea5" stroke-width="2.2" stroke-linecap="butt"/>
<line x1="1475" y1="2018.75" x2="1825" y2="2018.75" stroke="#3a6ea5" stroke-width="3.4" stroke-linecap="butt"/>
<polygon points="881.25,2039.583 900,2039.583 900,1862.5 881.25,1862.5" fill="#dfe9ef" stroke="#1d6fa5" stroke-width="2.2" stroke-linejoin="miter"/>
<path d="M 890.625 1862.5 L 950.625 1712.5 L 976.625 1712.5" fill="none" stroke="#111418" stroke-width="0.6"/>
<circle cx="890.625" cy="1862.5" r="3.4" fill="#111418"/>
<text x="982.625" y="1718.5" font-family="ui-monospace, "SF Mono", Menlo, Consolas, monospace" font-size="17" font-weight="400" fill="#111418" text-anchor="start" letter-spacing="0">CLERESTORY 89 SF — GLAZED WEST</text>
<polygon points="600,2100 900,2100 900,2050 600,2050" fill="url(#snowret)" stroke="#3a6ea5" stroke-width="1.4" stroke-linejoin="miter"/>
<polygon points="900,2100 1200,2100 1200,2050 900,2050" fill="url(#snowret)" stroke="#3a6ea5" stroke-width="1.4" stroke-linejoin="miter"/>
<polygon points="1200,2025 1387.5,2025 1387.5,1975 1200,1975" fill="url(#snowret)" stroke="#3a6ea5" stroke-width="1.4" stroke-linejoin="miter"/>
<polygon points="1500,2018.75 1800,2018.75 1800,1968.75 1500,1968.75" fill="url(#snowret)" stroke="#3a6ea5" stroke-width="1.4" stroke-linejoin="miter"/>
<polygon points="300,2175 600,2175 600,2100 300,2100" fill="none" stroke="#b03535" stroke-width="2.2" stroke-dasharray="14 8" stroke-linejoin="miter"/>
<text x="450" y="2141.667" font-family="ui-monospace, "SF Mono", Menlo, Consolas, monospace" font-size="12" font-weight="700" fill="#b03535" text-anchor="middle" letter-spacing="0">FREE SHED ZONE — NOTHING MAY BE PLACED HERE</text>
<text x="275" y="2262.5" font-family="ui-monospace, "SF Mono", Menlo, Consolas, monospace" font-size="24" font-weight="700" fill="#111418" text-anchor="start" letter-spacing="1.5">ROOF PLAN   ·   1/8"=1'-0"</text>
<text x="275" y="2288.5" font-family="ui-monospace, "SF Mono", Menlo, Consolas, monospace" font-size="14" font-weight="400" fill="#4a5560" text-anchor="start" letter-spacing="0">EVERY PLANE FALLS DOWNHILL. NO VALLEYS, NO CRICKETS, NO ROOF WATER SENT TO THE CUT.</text>
<text x="275" y="2308.5" font-family="ui-monospace, "SF Mono", Menlo, Consolas, monospace" font-size="12" font-weight="400" fill="#4a5560" text-anchor="start" letter-spacing="0">HEAVY BLUE LINE IS THE EAVE. HATCHED BANDS ARE SNOW RETENTION, PLACED WHERE SOMETHING IS BELOW.</text>
<g transform="translate(2300,1720) rotate(-20)"><circle cx="0" cy="0" r="46" fill="none" stroke="#4a5560" stroke-width="1"/><path d="M 0 -58 L 15.64 23 L 0 7.36 L -15.64 23 Z" fill="#111418"/></g>
<text x="2300" y="1806" font-family="ui-monospace, "SF Mono", Menlo, Consolas, monospace" font-size="16" font-weight="400" fill="#4a5560" text-anchor="middle" letter-spacing="1.5">TRUE NORTH</text>
<rect x="2180" y="2210" width="50" height="12" fill="#111418" stroke="#111418" stroke-width="1"/>
<text x="2180" y="2202" font-family="ui-monospace, "SF Mono", Menlo, Consolas, monospace" font-size="15" font-weight="400" fill="#4a5560" text-anchor="middle" letter-spacing="0">0</text>
<rect x="2230" y="2210" width="50" height="12" fill="#ffffff" stroke="#111418" stroke-width="1"/>
<text x="2230" y="2202" font-family="ui-monospace, "SF Mono", Menlo, Consolas, monospace" font-size="15" font-weight="400" fill="#4a5560" text-anchor="middle" letter-spacing="0">4</text>
<rect x="2280" y="2210" width="100" height="12" fill="#111418" stroke="#111418" stroke-width="1"/>
<text x="2280" y="2202" font-family="ui-monospace, "SF Mono", Menlo, Consolas, monospace" font-size="15" font-weight="400" fill="#4a5560" text-anchor="middle" letter-spacing="0">8</text>
<text x="2380" y="2202" font-family="ui-monospace, "SF Mono", Menlo, Consolas, monospace" font-size="15" font-weight="400" fill="#4a5560" text-anchor="middle" letter-spacing="0">16</text>
<text x="2396" y="2222" font-family="ui-monospace, "SF Mono", Menlo, Consolas, monospace" font-size="15" font-weight="400" fill="#4a5560" text-anchor="start" letter-spacing="0">FT</text>
<text x="2180" y="2248" font-family="ui-monospace, "SF Mono", Menlo, Consolas, monospace" font-size="16" font-weight="400" fill="#111418" text-anchor="start" letter-spacing="1">SCALE: 1/4"=1'-0"</text>
<rect x="2940" y="40" width="620" height="2320" rx="0" fill="#ffffff" stroke="#111418" stroke-width="2.2"/>
<text x="2966" y="102" font-family="ui-monospace, "SF Mono", Menlo, Consolas, monospace" font-size="40" font-weight="700" fill="#111418" text-anchor="start" letter-spacing="3">HENRY HOUSE</text>
<text x="2966" y="132" font-family="ui-monospace, "SF Mono", Menlo, Consolas, monospace" font-size="15" font-weight="400" fill="#4a5560" text-anchor="start" letter-spacing="1.6">WATAUGA COUNTY, NORTH CAROLINA</text>
<line x1="2960" y1="158" x2="3540" y2="158" stroke="#111418" stroke-width="1.4"/>
<text x="2966" y="192" font-family="ui-monospace, "SF Mono", Menlo, Consolas, monospace" font-size="15" font-weight="700" fill="#b8562f" text-anchor="start" letter-spacing="1.8">THE HOUSE WORKS LIKE A BODY</text>
<text x="2966" y="214" font-family="ui-monospace, "SF Mono", Menlo, Consolas, monospace" font-size="12" font-weight="400" fill="#4a5560" text-anchor="start" letter-spacing="0">STRUCTURE = SKELETON   WATER = CIRCULATION</text>
<text x="2966" y="230" font-family="ui-monospace, "SF Mono", Menlo, Consolas, monospace" font-size="12" font-weight="400" fill="#4a5560" text-anchor="start" letter-spacing="0">WASTE = DIGESTION      HVAC  = RESPIRATION</text>
<text x="2966" y="246" font-family="ui-monospace, "SF Mono", Menlo, Consolas, monospace" font-size="12" font-weight="400" fill="#4a5560" text-anchor="start" letter-spacing="0">POWER = NERVOUS SYS.   SKIN  = ENVELOPE</text>
<line x1="2960" y1="274" x2="3540" y2="274" stroke="#c6cfd8" stroke-width="0.6"/>
<text x="2966" y="304" font-family="ui-monospace, "SF Mono", Menlo, Consolas, monospace" font-size="14" font-weight="700" fill="#111418" text-anchor="start" letter-spacing="1.6">SHEET NOTES</text>
<text x="2966" y="324" font-family="ui-monospace, "SF Mono", Menlo, Consolas, monospace" font-size="12.2" font-weight="400" fill="#4a5560" text-anchor="start" letter-spacing="0">1. GLASS IS ON THE DOWNHILL WALL. Compare the south and north</text>
<text x="2966" y="339" font-family="ui-monospace, "SF Mono", Menlo, Consolas, monospace" font-size="12.2" font-weight="400" fill="#4a5560" text-anchor="start" letter-spacing="0">faces: the view and the winter sun arrive from the same side,</text>
<text x="2966" y="354" font-family="ui-monospace, "SF Mono", Menlo, Consolas, monospace" font-size="12.2" font-weight="400" fill="#4a5560" text-anchor="start" letter-spacing="0">which is the entire reason the bar was turned to this azimuth.</text>
<text x="2966" y="369" font-family="ui-monospace, "SF Mono", Menlo, Consolas, monospace" font-size="12.2" font-weight="400" fill="#4a5560" text-anchor="start" letter-spacing="0">The uphill wall is the cold side, the cut side and the service</text>
<text x="2966" y="384" font-family="ui-monospace, "SF Mono", Menlo, Consolas, monospace" font-size="12.2" font-weight="400" fill="#4a5560" text-anchor="start" letter-spacing="0">side, and it is nearly solid.</text>
<text x="2966" y="403" font-family="ui-monospace, "SF Mono", Menlo, Consolas, monospace" font-size="12.2" font-weight="400" fill="#4a5560" text-anchor="start" letter-spacing="0">2. THE ROOF STEPS AT GRID E. Two 3:12 planes, both falling</text>
<text x="2966" y="418" font-family="ui-monospace, "SF Mono", Menlo, Consolas, monospace" font-size="12.2" font-weight="400" fill="#4a5560" text-anchor="start" letter-spacing="0">downhill, with the tall wing raised so the step can be glazed.</text>
<text x="2966" y="433" font-family="ui-monospace, "SF Mono", Menlo, Consolas, monospace" font-size="12.2" font-weight="400" fill="#4a5560" text-anchor="start" letter-spacing="0">That clerestory is the one opening on this building that faces</text>
<text x="2966" y="448" font-family="ui-monospace, "SF Mono", Menlo, Consolas, monospace" font-size="12.2" font-weight="400" fill="#4a5560" text-anchor="start" letter-spacing="0">the wrong direction — see the note on the south elevation.</text>
<text x="2966" y="467" font-family="ui-monospace, "SF Mono", Menlo, Consolas, monospace" font-size="12.2" font-weight="400" fill="#4a5560" text-anchor="start" letter-spacing="0">3. SNOW RETENTION IS DRAWN WHERE IT IS REQUIRED. Standing seam</text>
<text x="2966" y="482" font-family="ui-monospace, "SF Mono", Menlo, Consolas, monospace" font-size="12.2" font-weight="400" fill="#4a5560" text-anchor="start" letter-spacing="0">at 3:12 releases in slabs. Retention runs over every occupied</text>
<text x="2966" y="497" font-family="ui-monospace, "SF Mono", Menlo, Consolas, monospace" font-size="12.2" font-weight="400" fill="#4a5560" text-anchor="start" letter-spacing="0">surface; the one free-shed zone is west of grid C, where</text>
<text x="2966" y="512" font-family="ui-monospace, "SF Mono", Menlo, Consolas, monospace" font-size="12.2" font-weight="400" fill="#4a5560" text-anchor="start" letter-spacing="0">nothing is below, and it is marked on the roof plan as a zone</text>
<text x="2966" y="527" font-family="ui-monospace, "SF Mono", Menlo, Consolas, monospace" font-size="12.2" font-weight="400" fill="#4a5560" text-anchor="start" letter-spacing="0">in which nothing may be placed.</text>
<text x="2966" y="546" font-family="ui-monospace, "SF Mono", Menlo, Consolas, monospace" font-size="12.2" font-weight="400" fill="#4a5560" text-anchor="start" letter-spacing="0">4. HEAVY LINE IS FINISHED GRADE AT THE FACE. Long dashes are</text>
<text x="2966" y="561" font-family="ui-monospace, "SF Mono", Menlo, Consolas, monospace" font-size="12.2" font-weight="400" fill="#4a5560" text-anchor="start" letter-spacing="0">ASSUMED NATURAL GRADE. Fine dashes are finished grade beyond</text>
<text x="2966" y="576" font-family="ui-monospace, "SF Mono", Menlo, Consolas, monospace" font-size="12.2" font-weight="400" fill="#4a5560" text-anchor="start" letter-spacing="0">the building. There is no survey; see</text>
<text x="2966" y="591" font-family="ui-monospace, "SF Mono", Menlo, Consolas, monospace" font-size="12.2" font-weight="400" fill="#4a5560" text-anchor="start" letter-spacing="0">docs/01-site-facts-register.md A-01.</text>
<text x="2966" y="610" font-family="ui-monospace, "SF Mono", Menlo, Consolas, monospace" font-size="12.2" font-weight="400" fill="#4a5560" text-anchor="start" letter-spacing="0">5. EERO marks an emergency escape and rescue opening. Net</text>
<text x="2966" y="625" font-family="ui-monospace, "SF Mono", Menlo, Consolas, monospace" font-size="12.2" font-weight="400" fill="#4a5560" text-anchor="start" letter-spacing="0">clear area, clear width and height and maximum sill height</text>
<text x="2966" y="640" font-family="ui-monospace, "SF Mono", Menlo, Consolas, monospace" font-size="12.2" font-weight="400" fill="#4a5560" text-anchor="start" letter-spacing="0">must all be VERIFIED against the governing NC Residential Code</text>
<text x="2966" y="655" font-family="ui-monospace, "SF Mono", Menlo, Consolas, monospace" font-size="12.2" font-weight="400" fill="#4a5560" text-anchor="start" letter-spacing="0">edition. Not verified in this environment.</text>
<text x="2966" y="674" font-family="ui-monospace, "SF Mono", Menlo, Consolas, monospace" font-size="12.2" font-weight="400" fill="#4a5560" text-anchor="start" letter-spacing="0">6. MATERIALS, NOT YET SPECIFIED, are indicated by extent only:</text>
<text x="2966" y="689" font-family="ui-monospace, "SF Mono", Menlo, Consolas, monospace" font-size="12.2" font-weight="400" fill="#4a5560" text-anchor="start" letter-spacing="0">standing seam metal roof, vertical rainscreen siding on the</text>
<text x="2966" y="704" font-family="ui-monospace, "SF Mono", Menlo, Consolas, monospace" font-size="12.2" font-weight="400" fill="#4a5560" text-anchor="start" letter-spacing="0">uphill and end walls, glazing on the downhill wall. No</text>
<text x="2966" y="719" font-family="ui-monospace, "SF Mono", Menlo, Consolas, monospace" font-size="12.2" font-weight="400" fill="#4a5560" text-anchor="start" letter-spacing="0">product, gauge, finish or fastening is selected.</text>
<text x="2966" y="738" font-family="ui-monospace, "SF Mono", Menlo, Consolas, monospace" font-size="12.2" font-weight="400" fill="#4a5560" text-anchor="start" letter-spacing="0">CODE VALUES ON THIS SET ARE UNVERIFIED. This container has no</text>
<text x="2966" y="753" font-family="ui-monospace, "SF Mono", Menlo, Consolas, monospace" font-size="12.2" font-weight="400" fill="#4a5560" text-anchor="start" letter-spacing="0">outbound web access, so no code text was read from a primary</text>
<text x="2966" y="768" font-family="ui-monospace, "SF Mono", Menlo, Consolas, monospace" font-size="12.2" font-weight="400" fill="#4a5560" text-anchor="start" letter-spacing="0">source. Every code reference is marked in</text>
<text x="2966" y="783" font-family="ui-monospace, "SF Mono", Menlo, Consolas, monospace" font-size="12.2" font-weight="400" fill="#4a5560" text-anchor="start" letter-spacing="0">docs/02-code-basis.md with its verification status. Nothing</text>
<text x="2966" y="798" font-family="ui-monospace, "SF Mono", Menlo, Consolas, monospace" font-size="12.2" font-weight="400" fill="#4a5560" text-anchor="start" letter-spacing="0">here may be relied on for permitting.</text>
<line x1="2960" y1="2110" x2="3540" y2="2110" stroke="#111418" stroke-width="1.4"/>
<text x="2966" y="2140" font-family="ui-monospace, "SF Mono", Menlo, Consolas, monospace" font-size="12" font-weight="400" fill="#8d99a6" text-anchor="start" letter-spacing="1.4">PHASE</text>
<text x="2966" y="2160" font-family="ui-monospace, "SF Mono", Menlo, Consolas, monospace" font-size="13.5" font-weight="700" fill="#b03535" text-anchor="start" letter-spacing="0">SCHEMATIC DESIGN — NOT FOR CONSTRUCTION</text>
<text x="2966" y="2188" font-family="ui-monospace, "SF Mono", Menlo, Consolas, monospace" font-size="12" font-weight="400" fill="#4a5560" text-anchor="start" letter-spacing="0">Elevations are PROJECTED FROM THE MODEL.</text>
<text x="2966" y="2204" font-family="ui-monospace, "SF Mono", Menlo, Consolas, monospace" font-size="12" font-weight="400" fill="#4a5560" text-anchor="start" letter-spacing="0">Openings come from model/openings.mjs —</text>
<text x="2966" y="2220" font-family="ui-monospace, "SF Mono", Menlo, Consolas, monospace" font-size="12" font-weight="400" fill="#4a5560" text-anchor="start" letter-spacing="0">the same list the plans draw. Grade comes</text>
<text x="2966" y="2236" font-family="ui-monospace, "SF Mono", Menlo, Consolas, monospace" font-size="12" font-weight="400" fill="#4a5560" text-anchor="start" letter-spacing="0">from model/site.mjs. If a window moves in</text>
<text x="2966" y="2252" font-family="ui-monospace, "SF Mono", Menlo, Consolas, monospace" font-size="12" font-weight="400" fill="#4a5560" text-anchor="start" letter-spacing="0">plan it moves here, or the build failed.</text>
<line x1="2960" y1="2230" x2="3540" y2="2230" stroke="#111418" stroke-width="1.4"/>
<text x="2966" y="2256" font-family="ui-monospace, "SF Mono", Menlo, Consolas, monospace" font-size="12" font-weight="400" fill="#8d99a6" text-anchor="start" letter-spacing="1.4">SCALE</text>
<text x="2966" y="2276" font-family="ui-monospace, "SF Mono", Menlo, Consolas, monospace" font-size="15" font-weight="700" fill="#111418" text-anchor="start" letter-spacing="0">1/4"=1'-0"</text>
<text x="3190" y="2256" font-family="ui-monospace, "SF Mono", Menlo, Consolas, monospace" font-size="12" font-weight="400" fill="#8d99a6" text-anchor="start" letter-spacing="1.4">ISSUED</text>
<text x="3190" y="2276" font-family="ui-monospace, "SF Mono", Menlo, Consolas, monospace" font-size="15" font-weight="700" fill="#111418" text-anchor="start" letter-spacing="0">2026-08-11</text>
<text x="3370" y="2256" font-family="ui-monospace, "SF Mono", Menlo, Consolas, monospace" font-size="12" font-weight="400" fill="#8d99a6" text-anchor="start" letter-spacing="1.4">REV</text>
<text x="3370" y="2276" font-family="ui-monospace, "SF Mono", Menlo, Consolas, monospace" font-size="15" font-weight="700" fill="#111418" text-anchor="start" letter-spacing="0">—</text>
<line x1="2960" y1="2292" x2="3540" y2="2292" stroke="#c6cfd8" stroke-width="0.6"/>
<text x="2966" y="2326" font-family="ui-monospace, "SF Mono", Menlo, Consolas, monospace" font-size="44" font-weight="700" fill="#111418" text-anchor="start" letter-spacing="2">A-302</text>
<text x="3534" y="2326" font-family="ui-monospace, "SF Mono", Menlo, Consolas, monospace" font-size="13" font-weight="400" fill="#8d99a6" text-anchor="end" letter-spacing="0">ARCH D 36x24</text>
</svg>